<?xml version="1.0" encoding="utf-8"?>
<!-- Generator: Adobe Illustrator 19.2.1, SVG Export Plug-In . SVG Version: 6.00 Build 0)  -->
<svg version="1.1" id="Layer_1" xmlns="http://www.w3.org/2000/svg" xmlns:xlink="http://www.w3.org/1999/xlink" x="0px" y="0px"
	 viewBox="0 0 48 48" style="enable-background:new 0 0 48 48;" xml:space="preserve">
<style type="text/css">
	.st0{fill:#454545;}
</style>
<path class="st0" d="M7.8,25c0-3.4,2.8-6.2,6.2-6.2h8V15h-8C8.5,15,4,19.5,4,25s4.5,10,10,10h8v-3.8h-8C10.6,31.2,7.8,28.4,7.8,25z
	 M16,27h16v-4H16V27z M34,15h-8v3.8h8c3.4,0,6.2,2.8,6.2,6.2s-2.8,6.2-6.2,6.2h-8V35h8c5.5,0,10-4.5,10-10S39.5,15,34,15z"/>
</svg>
