<?xml version="1.0" encoding="utf-8"?>
<!-- Generator: Adobe Illustrator 19.2.1, SVG Export Plug-In . SVG Version: 6.00 Build 0)  -->
<svg version="1.1" id="Layer_1" xmlns="http://www.w3.org/2000/svg" xmlns:xlink="http://www.w3.org/1999/xlink" x="0px" y="0px"
	 viewBox="0 0 48 48" style="enable-background:new 0 0 48 48;" xml:space="preserve">
<style type="text/css">
	.st0{fill:#454545;}
	.st1{fill:#FFFFFF;}
</style>
<path class="st0" d="M24,5.6c-9.9,0-18,8.1-18,18v14c0,3.3,2.7,6,6,6h6v-16h-8v-4c0-7.7,6.3-14,14-14s14,6.3,14,14v4h-8v16h6
	c3.3,0,6-2.7,6-6v-14C42,13.6,33.9,5.6,24,5.6z"/>
<polyline class="st0" points="44.9,16.5 43,13.4 3.2,39.1 5.1,42.1 "/>
<polyline class="st1" points="43,13.5 41,10.4 1.2,36 3.2,39.1 "/>
</svg>
