<?xml version="1.0" encoding="utf-8"?>
<!-- Generator: Adobe Illustrator 19.2.1, SVG Export Plug-In . SVG Version: 6.00 Build 0)  -->
<svg version="1.1" id="Layer_1" xmlns="http://www.w3.org/2000/svg" xmlns:xlink="http://www.w3.org/1999/xlink" x="0px" y="0px"
	 viewBox="0 0 48 48" style="enable-background:new 0 0 48 48;" xml:space="preserve">
<style type="text/css">
	.st0{fill:#454545;}
</style>
<path class="st0" d="M38,23h-3.4c0,1.5-0.3,2.9-0.9,4.1l2.5,2.5C37.3,27.6,38,25.4,38,23z M30,23.3c0-0.1,0-0.2,0-0.3V11
	c0-3.3-2.7-6-6-6s-6,2.7-6,6v0.4L30,23.3z M8.6,7L6,9.6l12,12V23c0,3.3,2.7,6,6,6c0.5,0,0.9-0.1,1.3-0.1l3.3,3.3c-1.4,0.7-3,1-4.6,1
	c-5.5,0-10.6-4.2-10.6-10.2H10c0,6.8,5.4,12.5,12,13.4V43h4v-6.6c1.8-0.3,3.5-0.9,5.1-1.8l8.4,8.4l2.5-2.5L8.6,7z"/>
</svg>
