<?xml version="1.0" encoding="utf-8"?>
<!-- Generator: Adobe Illustrator 19.2.1, SVG Export Plug-In . SVG Version: 6.00 Build 0)  -->
<svg version="1.1" id="Layer_1" xmlns="http://www.w3.org/2000/svg" xmlns:xlink="http://www.w3.org/1999/xlink" x="0px" y="0px"
	 viewBox="0 0 48 48" style="enable-background:new 0 0 48 48;" xml:space="preserve">
<style type="text/css">
	.st0{fill:#454545;}
	.st1{fill:#FFFFFF;}
	.st2{display:none;}
	.st3{display:inline;fill:none;}
	.st4{display:inline;}
</style>
<g id="Layer_1_1_">
	<path class="st0" d="M24,28c3.3,0,6-2.7,6-6V10c0-3.3-2.7-6-6-6s-6,2.7-6,6v12C18,25.3,20.7,28,24,28z M21.6,9.8
		c0-1.3,1.1-2.4,2.4-2.4s2.4,1.1,2.4,2.4v12.4c0,1.3-1.1,2.4-2.4,2.4s-2.4-1.1-2.4-2.4V9.8z M34.6,22c0,6-5.1,10.2-10.6,10.2
		S13.4,28,13.4,22H10c0,6.8,5.4,12.5,12,13.4V42h4v-6.6c6.6-1,12-6.6,12-13.4C38,22,34.6,22,34.6,22z"/>
	<polyline class="st0" points="39.5,42 42,39.5 8.6,6 6,8.6 	"/>
	<polyline class="st1" points="42,39.5 44.5,36.9 11.1,3.5 8.5,6 	"/>
</g>
<g id="Layer_2" class="st2">
	<path class="st3" d="M0,0h48v48H0V0z M0,0h48v48H0V0z"/>
	<path class="st4" d="M38,22h-3.4c0,1.5-0.3,2.9-0.9,4.1l2.5,2.5C37.3,26.6,38,24.4,38,22z M30,22.3c0-0.1,0-0.2,0-0.3V10
		c0-3.3-2.7-6-6-6s-6,2.7-6,6v0.4L30,22.3z M8.6,6L6,8.6l12,12V22c0,3.3,2.7,6,6,6c0.5,0,0.9-0.1,1.3-0.1l3.3,3.3
		c-1.4,0.7-3,1-4.6,1c-5.5,0-10.6-4.2-10.6-10.2H10c0,6.8,5.4,12.5,12,13.4V42h4v-6.6c1.8-0.3,3.5-0.9,5.1-1.8l8.4,8.4l2.5-2.5
		L8.6,6z"/>
</g>
</svg>
