<?xml version="1.0" encoding="utf-8"?>
<!-- Generator: Adobe Illustrator 19.2.1, SVG Export Plug-In . SVG Version: 6.00 Build 0)  -->
<svg version="1.1" id="Layer_1" xmlns="http://www.w3.org/2000/svg" xmlns:xlink="http://www.w3.org/1999/xlink" x="0px" y="0px"
	 viewBox="0 0 48 48" style="enable-background:new 0 0 48 48;" xml:space="preserve">
<style type="text/css">
	.st0{fill:#454545;}
</style>
<path class="st0" d="M24,5C12.9,5,4,13.9,4,25s8.9,20,20,20s20-9,20-20S35,5,24,5z M37.8,17h-5.9c-0.6-2.5-1.6-4.9-2.8-7.1
	C32.9,11.1,35.9,13.7,37.8,17z M24,9.1c1.7,2.4,3,5.1,3.8,7.9h-7.6C21,14.1,22.3,11.5,24,9.1z M8.5,29C8.2,27.7,8,26.4,8,25
	s0.2-2.7,0.5-4h6.8c-0.2,1.3-0.3,2.6-0.3,4s0.1,2.7,0.3,4H8.5z M10.2,33h5.9c0.6,2.5,1.6,4.9,2.8,7.1C15.1,38.9,12.1,36.3,10.2,33z
	 M16.1,17h-5.9c1.9-3.3,5-5.9,8.7-7.1C17.6,12.1,16.7,14.5,16.1,17z M24,40.9c-1.7-2.4-3-5.1-3.8-7.9h7.6C27,35.9,25.7,38.5,24,40.9
	z M28.7,29h-9.4c-0.2-1.3-0.3-2.6-0.3-4s0.1-2.7,0.3-4h9.4c0.2,1.3,0.3,2.6,0.3,4S28.9,27.7,28.7,29z M29.2,40.1
	c1.2-2.2,2.1-4.6,2.8-7.1h5.9C35.9,36.3,32.9,38.9,29.2,40.1z M32.7,29c0.2-1.3,0.3-2.6,0.3-4s-0.1-2.7-0.3-4h6.8
	c0.3,1.3,0.5,2.6,0.5,4s-0.2,2.7-0.5,4H32.7z"/>
</svg>
